# xmcd
#
# Track frame offsets:
#	150
#	11734
#	25384
#	39318
#	53456
#	69581
#	82842
#	93097
#	106370
#	124849
#	137797
#	149376
#	165503
#
# Disc length: 2409 seconds
#
# Revision: 1
# Processed by: cddbd v1.5.2PL0 Copyright (c) Steve Scherf et al.
# Submitted via: audiograbber 1.83.01
#
DISCID=a109670d
DTITLE=Bleu Moon                 - Once in a Bleu Moon
DYEAR=2008
DGENRE=Bluegrass
TTITLE0=Southbound  Passenger Train
TTITLE1=Cold Wind
TTITLE2=Down the Road
TTITLE3=I'm Gonna Be  (500 Miles)
TTITLE4=Dark Hollow 
TTITLE5=Ain't  Nobody Gonna Miss Me
TTITLE6=You Can Mark It Down
TTITLE7=Walk Softly on this Heart of Mine
TTITLE8=Steel Rails
TTITLE9=Blue Ridge Cabin Home
TTITLE10=Fox on the Run
TTITLE11=EMD
TTITLE12=All Prayed Up
EXTD=
EXTT0=
EXTT1=
EXTT2=
EXTT3=
EXTT4=
EXTT5=
EXTT6=
EXTT7=
EXTT8=
EXTT9=
EXTT10=
EXTT11=
EXTT12=
PLAYORDER=
